<svg width="24" height="24" viewBox="0 0 24 24" fill="none" xmlns="http://www.w3.org/2000/svg">
<path d="M17.5 9.58336C17.5029 10.6832 17.2459 11.7683 16.75 12.75C16.162 13.9265 15.2581 14.916 14.1395 15.6078C13.021 16.2995 11.7319 16.6662 10.4167 16.6667C9.31678 16.6696 8.23176 16.4126 7.25 15.9167L2.5 17.5L4.08333 12.75C3.58744 11.7683 3.33047 10.6832 3.33333 9.58336C3.33384 8.26815 3.70051 6.97907 4.39227 5.86048C5.08402 4.7419 6.07355 3.838 7.25 3.25002C8.23176 2.75413 9.31678 2.49716 10.4167 2.50002H10.8333C12.5703 2.59585 14.2109 3.32899 15.4409 4.55907C16.671 5.78915 17.4042 7.42973 17.5 9.16669V9.58336Z" stroke="white" stroke-width="1.25" stroke-linecap="round" stroke-linejoin="round"/>
<g clip-path="url(#clip0_12359_131096)">
<rect x="11" y="11" width="12" height="12" rx="6" fill="#E81010"/>
<path d="M17 20.62C16.5467 20.62 16.13 20.5367 15.75 20.37C15.37 20.2033 15.0667 19.95 14.84 19.61C14.6133 19.27 14.4933 18.84 14.48 18.32H15.8C15.8067 18.54 15.8567 18.74 15.95 18.92C16.0433 19.0933 16.18 19.2333 16.36 19.34C16.54 19.44 16.7533 19.49 17 19.49C17.2333 19.49 17.4333 19.4433 17.6 19.35C17.7667 19.2567 17.8933 19.1333 17.98 18.98C18.0667 18.8267 18.11 18.65 18.11 18.45C18.11 18.2167 18.05 18.0233 17.93 17.87C17.8167 17.71 17.6567 17.59 17.45 17.51C17.25 17.43 17.02 17.39 16.76 17.39H16.24V16.28H16.76C17.0867 16.28 17.36 16.2033 17.58 16.05C17.8067 15.8967 17.92 15.6667 17.92 15.36C17.92 15.1067 17.8367 14.9033 17.67 14.75C17.51 14.5967 17.2833 14.52 16.99 14.52C16.67 14.52 16.42 14.6133 16.24 14.8C16.06 14.9867 15.96 15.2167 15.94 15.49H14.62C14.64 15.05 14.75 14.6733 14.95 14.36C15.1567 14.04 15.4333 13.7967 15.78 13.63C16.1267 13.4633 16.53 13.38 16.99 13.38C17.4767 13.38 17.8867 13.4667 18.22 13.64C18.56 13.8067 18.8167 14.0333 18.99 14.32C19.1633 14.6067 19.25 14.9167 19.25 15.25C19.25 15.5233 19.1967 15.7667 19.09 15.98C18.99 16.1933 18.8533 16.37 18.68 16.51C18.5067 16.65 18.3167 16.75 18.11 16.81C18.37 16.8633 18.5967 16.9667 18.79 17.12C18.99 17.2667 19.1433 17.4567 19.25 17.69C19.3633 17.9233 19.42 18.1933 19.42 18.5C19.42 18.88 19.3267 19.2333 19.14 19.56C18.96 19.88 18.6867 20.1367 18.32 20.33C17.96 20.5233 17.52 20.62 17 20.62Z" fill="white"/>
</g>
<defs>
<clipPath id="clip0_12359_131096">
<rect x="11" y="11" width="12" height="12" rx="6" fill="white"/>
</clipPath>
</defs>
</svg>
