<svg width="24" height="14" viewBox="0 0 24 14" fill="none" xmlns="http://www.w3.org/2000/svg">
<path d="M0.781 11V3.3H3.267C4.16167 3.3 4.89867 3.45767 5.478 3.773C6.06467 4.08833 6.49733 4.53567 6.776 5.115C7.062 5.687 7.205 6.369 7.205 7.161C7.205 7.93833 7.062 8.61667 6.776 9.196C6.49733 9.768 6.06467 10.2117 5.478 10.527C4.89867 10.8423 4.16167 11 3.267 11H0.781ZM2.101 9.878H3.201C3.86833 9.878 4.39267 9.77167 4.774 9.559C5.16267 9.339 5.43767 9.02733 5.599 8.624C5.76767 8.21333 5.852 7.72567 5.852 7.161C5.852 6.589 5.76767 6.10133 5.599 5.698C5.43767 5.28733 5.16267 4.972 4.774 4.752C4.39267 4.52467 3.86833 4.411 3.201 4.411H2.101V9.878ZM8.49389 11V3.3H9.81389L13.5209 8.866V3.3H14.8409V11H13.5209L9.81389 5.445V11H8.49389ZM16.3894 11V3.3H18.8754C19.7701 3.3 20.5071 3.45767 21.0864 3.773C21.6731 4.08833 22.1057 4.53567 22.3844 5.115C22.6704 5.687 22.8134 6.369 22.8134 7.161C22.8134 7.93833 22.6704 8.61667 22.3844 9.196C22.1057 9.768 21.6731 10.2117 21.0864 10.527C20.5071 10.8423 19.7701 11 18.8754 11H16.3894ZM17.7094 9.878H18.8094C19.4767 9.878 20.0011 9.77167 20.3824 9.559C20.7711 9.339 21.0461 9.02733 21.2074 8.624C21.3761 8.21333 21.4604 7.72567 21.4604 7.161C21.4604 6.589 21.3761 6.10133 21.2074 5.698C21.0461 5.28733 20.7711 4.972 20.3824 4.752C20.0011 4.52467 19.4767 4.411 18.8094 4.411H17.7094V9.878Z" fill="#D70015"/>
</svg>
