<svg width="24" height="14" viewBox="0 0 24 14" fill="none" xmlns="http://www.w3.org/2000/svg">
<path d="M0.781 11V3.3H2.343L4.807 8.272L7.249 3.3H8.822V11H7.502V5.566L5.324 9.922H4.29L2.101 5.577V11H0.781ZM13.2995 11.132C12.7422 11.132 12.2362 11.022 11.7815 10.802C11.3342 10.582 10.9748 10.2447 10.7035 9.79C10.4395 9.33533 10.3075 8.76333 10.3075 8.074V3.3H11.6275V8.085C11.6275 8.503 11.6972 8.84767 11.8365 9.119C11.9758 9.39033 12.1702 9.59567 12.4195 9.735C12.6762 9.867 12.9768 9.933 13.3215 9.933C13.6735 9.933 13.9742 9.867 14.2235 9.735C14.4802 9.59567 14.6745 9.39033 14.8065 9.119C14.9458 8.84767 15.0155 8.503 15.0155 8.085V3.3H16.3355V8.074C16.3355 8.76333 16.1998 9.33533 15.9285 9.79C15.6572 10.2447 15.2905 10.582 14.8285 10.802C14.3665 11.022 13.8568 11.132 13.2995 11.132ZM17.8181 11V3.3H20.5791C21.1878 3.3 21.6901 3.40633 22.0861 3.619C22.4894 3.82433 22.7864 4.103 22.9771 4.455C23.1751 4.79967 23.2741 5.192 23.2741 5.632C23.2741 6.04267 23.1788 6.424 22.9881 6.776C22.7974 7.128 22.5004 7.41033 22.0971 7.623C21.6938 7.83567 21.1768 7.942 20.5461 7.942H19.1381V11H17.8181ZM21.8331 11L20.2161 7.601H21.6461L23.3401 11H21.8331ZM19.1381 6.963H20.4911C20.9824 6.963 21.3418 6.84567 21.5691 6.611C21.8038 6.369 21.9211 6.05367 21.9211 5.665C21.9211 5.28367 21.8074 4.97933 21.5801 4.752C21.3528 4.51733 20.9898 4.4 20.4911 4.4H19.1381V6.963Z" fill="#007AFF"/>
</svg>
